# xmcd
#
# Track frame offsets: 
#        150
#        18417
#        36085
#        53677
#        71997
#        93672
#        111320
#        117040
#        130190
#        145465
#        164732
#        184720
#        199515
#
# Disc length: 2952 seconds
#
# Revision: 0
# Processed by: cddbd v1.5.2PL0 Copyright (c) Steve Scherf et al.
# Submitted via: ExactAudioCopyFreeDBPlugin 1.0
#
DISCID=be0b860d
DTITLE=Michael Bohannon - Bulid A Fire
DYEAR=2001
DGENRE=R&B
TTITLE0=Build A Fire
TTITLE1=Make Love Last Forever
TTITLE2=Maybe
TTITLE3=Mellow
TTITLE4=Someday
TTITLE5=Bliss
TTITLE6=Heavenly Interlude
TTITLE7=Turn You On
TTITLE8=Straight From The Heart
TTITLE9=Amazing
TTITLE10=Get It Right
TTITLE11=Grace
TTITLE12=Clones
EXTD=
EXTT0=
EXTT1=
EXTT2=
EXTT3=
EXTT4=
EXTT5=
EXTT6=
EXTT7=
EXTT8=
EXTT9=
EXTT10=
EXTT11=
EXTT12=
PLAYORDER=
